<svg xmlns="http://www.w3.org/2000/svg" version="1.1" xmlns:xlink="http://www.w3.org/1999/xlink" xmlns:svgjs="http://svgjs.dev/svgjs" width="1000" height="1000" viewBox="0 0 1000 1000"><rect width="1000" height="1000" fill="#ffffff"></rect><g transform="matrix(0.7,0,0,0.7,149.57575757575756,282.1265587044535)"><svg viewBox="0 0 396 247" data-background-color="#ffffff" preserveAspectRatio="xMidYMid meet" height="623" width="1000" xmlns="http://www.w3.org/2000/svg" xmlns:xlink="http://www.w3.org/1999/xlink"><g id="tight-bounds" transform="matrix(1,0,0,1,0.2400000000000091,-0.09999999999999432)"><svg viewBox="0 0 395.52 247.2" height="247.2" width="395.52"><g><svg></svg></g><g><svg viewBox="0 0 395.52 247.2" height="247.2" width="395.52"><g transform="matrix(1,0,0,1,75.54432,54.32795465587044)"><svg viewBox="0 0 244.43135999999998 138.5440906882591" height="138.5440906882591" width="244.43135999999998"><g><svg viewBox="0 0 244.43135999999998 138.5440906882591" height="138.5440906882591" width="244.43135999999998"><g><svg viewBox="0 0 244.43135999999998 138.5440906882591" height="138.5440906882591" width="244.43135999999998"><g><svg viewBox="0 0 244.43135999999998 138.5440906882591" height="138.5440906882591" width="244.43135999999998"><g id="textblocktransform"><svg viewBox="0 0 244.43135999999998 138.5440906882591" height="138.5440906882591" width="244.43135999999998" id="textblock"><g><svg viewBox="0 0 244.43135999999998 138.5440906882591" height="138.5440906882591" width="244.43135999999998"><g transform="matrix(1,0,0,1,0,0)"><svg width="244.43135999999998" viewBox="1.75 -35 61.75 35" height="138.5440906882591" data-palette-color="#000000"><path d="M1.75 0L26.8 0 26.8-7.7 24.85-7.7 24.85-1.95 7.4-1.95 7.4-16.65 24.15-16.65 24.15-18.65 7.4-18.65 7.4-33.05 24.15-33.05 24.15-27.3 26.1-27.3 26.1-35 1.75-35 1.75-33.05 5.35-33.05 5.35-1.95 1.75-1.95 1.75 0ZM34.45-1.65L34.45-1.65Q34.45-2.3 33.95-2.78 33.45-3.25 32.85-3.25L32.85-3.25Q32.2-3.25 31.7-2.78 31.2-2.3 31.2-1.65L31.2-1.65Q31.2-0.95 31.7-0.48 32.2 0 32.85 0L32.85 0Q33.45 0 33.95-0.48 34.45-0.95 34.45-1.65ZM38.45 0L63.5 0 63.5-7.7 61.55-7.7 61.55-1.95 44.09-1.95 44.09-16.65 60.84-16.65 60.84-18.65 44.09-18.65 44.09-33.05 60.84-33.05 60.84-27.3 62.8-27.3 62.8-35 38.45-35 38.45-33.05 42.05-33.05 42.05-1.95 38.45-1.95 38.45 0Z" opacity="1" transform="matrix(1,0,0,1,0,0)" fill="#000000" class="undefined-text-0" data-fill-palette-color="primary" id="text-0"></path></svg></g></svg></g></svg></g></svg></g></svg></g></svg></g></svg></g><g><path d="M0 123.6c0-68.262 55.338-123.6 123.6-123.6 35.024 0 66.646 14.568 89.136 37.974h-8.886c-20.987-19.677-49.211-31.727-80.25-31.727-64.812 0-117.353 52.541-117.353 117.353 0 64.812 52.541 117.353 117.353 117.353 31.039 0 59.263-12.05 80.25-31.727l8.886 0c-22.49 23.407-54.112 37.974-89.136 37.974-68.262 0-123.6-55.338-123.6-123.6z" fill="#000000" stroke="transparent" data-fill-palette-color="tertiary"></path></g></svg></g><defs></defs></svg><rect width="395.52" height="247.2" fill="none" stroke="none" visibility="hidden"></rect></g></svg></g></svg>